<svg width="71" height="41" viewBox="0 0 71 41" fill="none" xmlns="http://www.w3.org/2000/svg">
<path d="M25.969 28.5786C22.734 28.5786 20.1196 31.2022 20.1196 34.4374C20.1196 37.663 22.734 40.2869 25.969 40.2869C29.2041 40.2869 31.8185 37.663 31.8185 34.4374C31.8184 31.2022 29.2041 28.5786 25.969 28.5786ZM25.969 37.3621C24.3514 37.3621 23.0442 36.0454 23.0442 34.4372C23.0442 32.8198 24.3514 31.5125 25.969 31.5125C27.5865 31.5125 28.8938 32.8198 28.8938 34.4372C28.8936 36.0454 27.5865 37.3621 25.969 37.3621ZM70.0863 24.251V30.497C70.0863 32.0551 68.8233 33.3182 67.265 33.3182H64.2462C63.7008 29.5752 60.4752 26.6976 56.5817 26.6976C52.6979 26.6976 49.4721 29.5754 48.9266 33.3182H33.626C33.0805 29.5752 29.8548 26.6976 25.9709 26.6976C22.0869 26.6976 18.8612 29.5754 18.3159 33.3182H14.5353C12.9772 33.3182 11.7141 32.0552 11.7141 30.497V24.251H70.0863ZM56.5893 28.5786C53.3542 28.5786 50.7305 31.2022 50.7305 34.4374C50.7305 37.663 53.3543 40.2869 56.5893 40.2869C59.8149 40.2869 62.4386 37.663 62.4386 34.4374C62.4386 31.2022 59.8149 28.5786 56.5893 28.5786ZM56.5893 37.3621C54.9717 37.3621 53.6646 36.0454 53.6646 34.4372C53.6646 32.8198 54.9717 31.5125 56.5893 31.5125C58.1974 31.5125 59.514 32.8198 59.514 34.4372C59.514 36.0454 58.1974 37.3621 56.5893 37.3621ZM68.9747 17.9611L57.8872 6.99566C57.1818 6.29972 56.232 5.90474 55.2445 5.90474H49.649V3.80753C49.649 2.24651 48.3889 0.986328 46.8278 0.986328H14.5334C12.9817 0.986328 11.7122 2.24662 11.7122 3.80753V4.24958L0.263396 5.56908L20.5502 8.21083L0 10.2523L20.4778 13.1637L0 14.9392L11.7129 17.1483L11.7121 22.6914H70.0844V20.6318C70.0844 19.6255 69.68 18.6664 68.9747 17.9611ZM64.1409 18.3278H53.4107C53.1662 18.3278 52.9686 18.1303 52.9686 17.8858V9.60064C52.9686 9.35614 53.1662 9.1586 53.4107 9.1586H55.4514C55.5642 9.1586 55.6772 9.20566 55.7618 9.2809L64.4419 17.5661C64.7333 17.8388 64.5357 18.3278 64.1409 18.3278Z" fill="white"/>
</svg>
