<svg width="53" height="40" viewBox="0 0 53 40" fill="none" xmlns="http://www.w3.org/2000/svg">
<path d="M52.2076 17.3219L52.1821 17.3183C52.172 17.3163 52.1627 17.3098 52.153 17.309L47.276 16.6681L47.2744 7.12319C47.2744 7.11672 47.2773 7.10863 47.2773 7.10863C47.2773 7.09205 47.2744 7.08275 47.2744 7.07184V7.04879C47.2736 7.02089 47.2671 6.9942 47.2655 6.96589C47.2591 6.86561 47.251 6.76493 47.2308 6.66626C47.2259 6.64443 47.2178 6.62259 47.2134 6.60076C47.1887 6.49198 47.1584 6.38402 47.1175 6.27727C47.1139 6.26918 47.109 6.26069 47.1066 6.2526C45.6101 2.47791 34.2767 0 23.6396 0C12.2222 0.000808666 0 2.85437 0 7.10176C0 7.11551 0.00363923 7.12925 0.00363923 7.14219L0 23.7407C0 27.6861 10.872 31.1466 23.266 31.1466L23.75 31.1429C24.2502 31.1377 24.6522 30.7305 24.6522 30.2299V24.0869C25.6372 24.4148 27.0751 24.8968 28.3043 25.3104V32.8716C28.3043 33.0851 28.3791 33.2921 28.515 33.4567L33.0806 38.9349C33.0895 38.9462 33.1041 38.9495 33.1134 38.9608C33.1235 38.9717 33.1279 38.9871 33.138 38.998C33.1902 39.0494 33.2549 39.0793 33.316 39.1169C33.3507 39.1379 33.379 39.167 33.4166 39.1832C33.5307 39.2337 33.654 39.2637 33.7818 39.2637H33.7862C41.1941 39.2289 48.1442 38.3636 52.3762 36.9483C52.7478 36.8242 53.0001 36.4744 53.0001 36.0826V18.2269C53.0018 17.7683 52.6625 17.3814 52.2076 17.3219ZM34.2383 19.5762L31.762 16.715L41.875 17.8051L41.8815 17.806H41.8827L43.9243 18.0736L47.0771 18.4881C43.4439 19.1399 38.958 19.5277 34.2383 19.5762ZM45.4491 16.4279L42.9142 16.0947V12.5986C43.9013 12.2023 44.7597 11.5614 45.4483 10.8138L45.4491 16.4279ZM22.0469 12.7729C9.46483 12.5436 1.86733 8.80371 1.82892 7.11551V7.09367C1.8738 5.24373 10.8975 1.82609 23.6376 1.82609C33.8825 1.82609 41.721 4.03591 44.4229 5.85188C44.4548 5.87372 44.4904 5.89555 44.5215 5.91779C44.5523 5.93963 44.579 5.96066 44.6081 5.98249C45.0565 6.31285 45.3351 6.62906 45.42 6.91454C45.4281 6.94487 45.431 6.97317 45.4354 7.00229C45.4398 7.02978 45.4463 7.05687 45.4471 7.08275V7.11753C45.4326 7.79766 44.3024 10.1041 42.245 10.923L19.8245 6.24816L19.6328 6.20812C19.6102 6.20327 19.5863 6.20691 19.5637 6.20408C19.2677 6.16486 18.9826 6.27201 18.7829 6.48632C18.7517 6.51908 18.7162 6.54738 18.6899 6.5858C18.5856 6.73824 18.5318 6.91454 18.5298 7.09165C18.5281 7.26795 18.5775 7.44587 18.6777 7.60033L22.0469 12.7729ZM22.8269 29.3189C9.7491 29.2356 1.82609 25.4265 1.82609 23.7407L1.82892 9.8603C5.40628 12.5173 13.7802 14.5416 22.8269 14.6063V29.3189ZM24.653 22.2021V13.6969C24.653 13.6871 24.6493 13.6778 24.6485 13.6669C24.6473 13.6342 24.6384 13.603 24.6348 13.5703C24.6275 13.521 24.6238 13.4704 24.6093 13.4223C24.5972 13.3831 24.5745 13.3463 24.5571 13.3091C24.5397 13.2715 24.528 13.2322 24.5062 13.1979L21.4145 8.4507L41.0885 12.6107V15.8549L29.3811 14.3163C29.3682 14.3143 29.3557 14.3179 29.3427 14.3171L29.3371 14.3163C29.3088 14.3127 29.2817 14.3192 29.2534 14.3171C29.2093 14.3155 29.1656 14.3155 29.1219 14.3192C29.0714 14.3244 29.0241 14.3353 28.9756 14.3491C28.9501 14.3564 28.9246 14.3556 28.8987 14.3645C28.8826 14.3709 28.8696 14.3826 28.8543 14.3899C28.8102 14.4093 28.771 14.434 28.7301 14.4595C28.6917 14.4841 28.6553 14.5076 28.6213 14.5371C28.5874 14.5662 28.5583 14.6002 28.5291 14.6346C28.4988 14.6701 28.4705 14.7049 28.4459 14.7441C28.437 14.7599 28.4224 14.7708 28.4139 14.7862C28.4002 14.8129 28.3965 14.8412 28.3848 14.8675C28.3666 14.9095 28.3508 14.9516 28.3391 14.9965C28.3274 15.0438 28.3217 15.0895 28.3173 15.1368C28.3152 15.1671 28.3051 15.1934 28.3051 15.2217V23.3829C26.5365 22.7905 25.4006 22.4148 24.653 22.2021ZM30.1312 24.6538V17.6725L32.8708 20.8382V35.829L30.1312 32.5412V24.6538ZM34.6968 37.4275V21.395C41.1193 21.3 47.1099 20.5815 51.1757 19.4303V35.4134C47.2542 36.5969 41.2151 37.3365 34.6968 37.4275Z" fill="white"/>
</svg>
