<svg width="54" height="54" viewBox="0 0 54 54" fill="none" xmlns="http://www.w3.org/2000/svg">
<g clip-path="url(#clip0)">
<path d="M48.9247 32.4568L33.996 17.5284C33.2107 16.7436 32.0361 16.4976 31.0029 16.9018C25.0871 19.2167 20.2154 18.9588 16.1095 16.1132C15.007 15.349 13.5128 15.4887 12.5565 16.4449L5.17456 23.8269C4.42227 24.5796 4.00781 25.5795 4.00781 26.6432C4.00781 27.7074 4.42227 28.7073 5.17456 29.4596L28.5482 52.8333C29.3005 53.586 30.3008 54 31.3646 54C32.4283 54 33.4286 53.5855 34.1809 52.8337L36.2911 50.7231C36.6001 50.4141 36.6001 49.9135 36.2911 49.6045C35.9821 49.2955 35.4816 49.2955 35.1726 49.6045L33.062 51.7151C32.6088 52.1683 32.0056 52.418 31.3646 52.418C30.7231 52.418 30.1204 52.1683 29.6668 51.7147L6.29311 28.341C5.83951 27.8874 5.58984 27.2847 5.58984 26.6432C5.58984 26.0022 5.83951 25.399 6.29311 24.9458L13.6755 17.5634C14.0904 17.1486 14.7351 17.0855 15.2081 17.4135C15.63 17.7056 16.0589 17.9734 16.4943 18.2173C16.5368 18.8282 16.7967 19.4124 17.2363 19.8524L20.9314 23.5475C21.4308 24.0469 22.0871 24.2965 22.7433 24.2965C23.3996 24.2965 24.0564 24.0469 24.5557 23.5475L28.2504 19.8524C28.4028 19.7004 28.533 19.5315 28.6414 19.3482C29.5951 19.0927 30.574 18.7685 31.5797 18.375C32.0275 18.1995 32.5367 18.3062 32.8774 18.647L47.8058 33.5757C48.2594 34.0289 48.509 34.6321 48.509 35.2735C48.509 35.9146 48.2594 36.5177 47.8058 36.9709L37.8048 46.9723C37.4958 47.2813 37.4958 47.7819 37.8048 48.0909C38.1138 48.3999 38.6143 48.3999 38.9233 48.0909L48.9247 38.0899C49.677 37.3376 50.0911 36.3373 50.0911 35.2735C50.0911 34.2094 49.6766 33.2095 48.9247 32.4568ZM23.4371 22.4286C23.0548 22.8113 22.4323 22.8113 22.05 22.4286L18.9189 19.2979C21.0991 20.0366 23.4433 20.2331 25.9766 19.8891L23.4371 22.4286ZM19.6386 28.4646C20.6377 27.4651 20.6377 25.8394 19.6386 24.84L15.9439 21.1457C15.4598 20.6612 14.8163 20.3946 14.1316 20.3946C13.4469 20.3946 12.8033 20.6612 12.3192 21.1452L8.62454 24.8404C7.62506 25.8394 7.62506 27.4655 8.62454 28.4646L12.3192 32.1597C12.819 32.6591 13.4753 32.9087 14.1316 32.9087C14.7879 32.9087 15.4442 32.6591 15.9439 32.1597L19.6386 28.4646C19.6382 28.4646 19.6382 28.4646 19.6386 28.4646ZM18.5197 27.3461H18.5201L14.825 31.0408C14.4426 31.4231 13.8205 31.4231 13.4378 31.0408L9.74309 27.3461C9.36076 26.9633 9.36076 26.3412 9.74309 25.9589L13.4378 22.2642C13.6232 22.0788 13.8696 21.9766 14.1316 21.9766C14.3936 21.9766 14.64 22.0788 14.825 22.2642L18.5197 25.9589C18.9024 26.3412 18.9024 26.9633 18.5197 27.3461ZM37.1011 11.2065L35.1248 10.2276C34.6296 9.98245 34.0532 10.0101 33.584 10.3017C33.1143 10.593 32.8337 11.0973 32.8337 11.6498V13.7909C32.8337 14.3672 33.1324 14.8822 33.633 15.1685C33.8802 15.3099 34.1509 15.3803 34.4211 15.3803C34.6976 15.3803 34.974 15.3066 35.2253 15.1587L37.2012 13.9964C37.7043 13.7006 38.0038 13.1548 37.9828 12.5718C37.9617 11.9884 37.6239 11.4656 37.1011 11.2065ZM36.3995 12.6328L34.4162 13.7962C34.4162 13.7962 34.4158 13.7942 34.4158 13.7909L34.4232 11.6452L36.4011 12.6229C36.402 12.6254 36.402 12.6315 36.3995 12.6328ZM33.7096 35.2645C33.7096 35.9488 33.9766 36.5927 34.4607 37.0768L38.1554 40.7715C38.6395 41.2556 39.283 41.5221 39.9673 41.5221C40.652 41.5221 41.296 41.2556 41.7796 40.7715L45.4743 37.0768C45.9588 36.5927 46.2254 35.9492 46.2254 35.2645C46.2254 34.5797 45.9588 33.9362 45.4743 33.4521L41.7796 29.7574C40.7806 28.7579 39.1544 28.7584 38.1554 29.7574L34.4603 33.4521C33.9766 33.9362 33.7096 34.5797 33.7096 35.2645ZM35.5792 34.5707L39.2739 30.876C39.4651 30.6848 39.7164 30.5892 39.9677 30.5892C40.2186 30.5892 40.4699 30.6848 40.6611 30.876L44.3558 34.5707C44.5412 34.7561 44.6434 35.0024 44.6434 35.2645C44.6434 35.5265 44.5412 35.7729 44.3558 35.9578L40.6611 39.653C40.4757 39.8379 40.2293 39.9401 39.9673 39.9401C39.7057 39.9401 39.4593 39.8379 39.2739 39.6525L35.5792 35.9578C35.3938 35.7729 35.2917 35.5265 35.2917 35.2645C35.2917 35.0024 35.3938 34.7561 35.5792 34.5707ZM37.158 6.02202L37.902 7.93982C38.1138 8.48529 38.5843 8.87091 39.1606 8.97185C39.2579 8.98874 39.3547 8.99739 39.4511 8.99739C39.9249 8.99739 40.3748 8.79469 40.694 8.42802L42.2481 6.64247C42.6658 6.16251 42.7721 5.50003 42.5249 4.91336C42.2781 4.32669 41.7298 3.93942 41.0945 3.90317L38.7964 3.77092C38.232 3.73796 37.696 3.99174 37.3631 4.44946C37.0302 4.90677 36.9536 5.49467 37.158 6.02202ZM38.6423 5.38014C38.6658 5.3476 38.6934 5.34966 38.7058 5.35007L41.0039 5.48232C41.0208 5.48355 41.0496 5.4852 41.0673 5.52722C41.085 5.56924 41.0661 5.59108 41.0549 5.60385L39.5009 7.3894C39.4927 7.39888 39.4737 7.42113 39.433 7.41371C39.3922 7.40671 39.3815 7.37952 39.3769 7.36757L38.6333 5.45018C38.6288 5.43864 38.6185 5.41269 38.6423 5.38014ZM20.931 40.7715C21.4151 41.2556 22.0586 41.5221 22.7433 41.5221C23.4281 41.5221 24.0716 41.2556 24.5557 40.7715L28.2504 37.0768C28.7345 36.5927 29.001 35.9492 29.001 35.2645C29.001 34.5797 28.7345 33.9362 28.2504 33.4521L24.5557 29.7574C23.5562 28.7579 21.9305 28.7584 20.931 29.7574L17.2363 33.4521C16.2368 34.4512 16.2368 36.0773 17.2363 37.0764L20.931 40.7715ZM18.3549 34.5707L22.05 30.876C22.2411 30.6848 22.492 30.5892 22.7433 30.5892C22.9947 30.5892 23.246 30.6848 23.4371 30.876L27.1318 34.5707C27.3172 34.7561 27.419 35.0024 27.419 35.2645C27.419 35.5265 27.3172 35.7729 27.1318 35.9578L23.4371 39.653C23.2517 39.8379 23.0054 39.9401 22.7433 39.9401C22.4813 39.9401 22.2354 39.8379 22.05 39.6525L18.3553 35.9578C18.1699 35.7729 18.0677 35.5265 18.0677 35.2645C18.0677 35.0024 18.1699 34.7561 18.3549 34.5707ZM33.1679 21.1452C32.6838 20.6612 32.0403 20.3946 31.3555 20.3946C30.6708 20.3946 30.0273 20.6612 29.5432 21.1452L25.8485 24.84C24.849 25.8394 24.849 27.4651 25.8485 28.4646L29.5432 32.1593C30.0429 32.6591 30.6992 32.9087 31.3555 32.9087C32.0118 32.9087 32.6681 32.6591 33.1679 32.1593L36.8626 28.4646C37.8616 27.4651 37.8616 25.8394 36.8626 24.84L33.1679 21.1452ZM35.744 27.3461L32.0489 31.0408C31.6666 31.4231 31.0445 31.4231 30.6617 31.0408L26.967 27.3461C26.5847 26.9633 26.5847 26.3412 26.967 25.9589L30.6622 22.2642C30.8471 22.0788 31.0935 21.9766 31.3555 21.9766C31.6176 21.9766 31.8639 22.0788 32.0493 22.2642L35.744 25.9589C36.1263 26.3412 36.1263 26.9633 35.744 27.3461ZM29.5432 49.3837C30.0429 49.883 30.6992 50.1331 31.3555 50.1331C32.0118 50.1331 32.6681 49.883 33.1679 49.3837L36.8626 45.6886C37.3466 45.2045 37.6132 44.561 37.6132 43.8766C37.6132 43.1919 37.3466 42.5484 36.8626 42.0639L33.1679 38.3696C32.6838 37.8855 32.0403 37.619 31.3555 37.619C30.6708 37.619 30.0273 37.8855 29.5432 38.3696L25.8485 42.0643C25.3644 42.5484 25.0979 43.1919 25.0979 43.8766C25.0979 44.561 25.3644 45.2049 25.8485 45.689L29.5432 49.3837ZM26.967 43.1829L30.6617 39.4882C30.8471 39.3028 31.0935 39.201 31.3555 39.201C31.6176 39.201 31.8639 39.3028 32.0489 39.4882L35.744 43.1829C35.929 43.3683 36.0312 43.6146 36.0312 43.8766C36.0312 44.1383 35.929 44.385 35.744 44.57L32.0489 48.2647C31.6666 48.647 31.0445 48.6475 30.6617 48.2647L26.967 44.57C26.7816 44.385 26.6799 44.1383 26.6799 43.8766C26.6799 43.6146 26.7816 43.3683 26.967 43.1829ZM21.4456 12.7836C21.8164 13.0967 22.2807 13.2643 22.7578 13.2643C22.8715 13.2643 22.9856 13.2549 23.0997 13.2355C23.8363 13.1107 24.5458 12.9376 25.2301 12.7201C25.2383 12.718 25.2458 12.7152 25.2536 12.7127C29.5708 11.3329 32.8626 8.10379 35.2727 2.89792C35.5677 2.26099 35.5187 1.52847 35.1413 0.938507C34.766 0.350601 34.1253 0 33.4274 0H24.7052C22.5093 0 20.7225 1.78679 20.7225 3.98309V6.78419C20.7225 7.2209 21.0769 7.57521 21.5136 7.57521C21.9503 7.57521 22.3046 7.2209 22.3046 6.78419V3.98309C22.3046 2.65897 23.3815 1.58203 24.7052 1.58203H33.4274C33.6429 1.58203 33.7587 1.71222 33.8081 1.79008C33.8489 1.85394 33.9333 2.02492 33.8369 2.23297C33.6149 2.71294 33.3842 3.17354 33.146 3.61725C32.7213 3.31567 32.2071 3.14305 31.6666 3.14305H26.4413C25.0282 3.14305 23.8784 4.29291 23.8784 5.70602V10.9313C23.8784 11.1051 23.8977 11.2761 23.9315 11.4438C23.5731 11.534 23.2081 11.6127 22.8348 11.6757C22.6544 11.707 22.5262 11.6259 22.4661 11.5752C22.4059 11.5241 22.3046 11.4112 22.3046 11.2275V10.4645C22.3046 10.0274 21.9503 9.67346 21.5136 9.67346C21.0769 9.67346 20.7225 10.0274 20.7225 10.4645V11.2275C20.7225 11.8286 20.9862 12.3955 21.4456 12.7836ZM25.4604 5.70602C25.4604 5.16508 25.9004 4.72508 26.4413 4.72508H31.6666C31.9224 4.72508 32.1622 4.82767 32.3414 4.99864C30.4904 7.92416 28.2141 9.89717 25.4612 10.9597C25.4612 10.9502 25.4604 10.9407 25.4604 10.9313V5.70602Z" fill="white"/>
</g>
<defs>
<clipPath id="clip0">
<rect width="54" height="54" fill="white"/>
</clipPath>
</defs>
</svg>
