<svg width="49" height="49" viewBox="0 0 49 49" fill="none" xmlns="http://www.w3.org/2000/svg">
<g clip-path="url(#clip0)">
<path d="M42.4696 6.55288H28.8016C25.6569 0.566209 18.2544 -1.73777 12.2678 1.40699C6.28109 4.55175 3.97711 11.9541 7.12176 17.9409C7.6999 19.0414 8.44222 20.0475 9.3232 20.9246C9.47554 21.0784 9.68308 21.1647 9.8995 21.1646C10.116 21.1646 10.3236 21.0785 10.4766 20.9254L12.7851 18.6169L17.1645 14.2375V46.5512C17.1645 47.9037 18.2609 49.0001 19.6134 49.0001H40.8369C42.1894 49.0001 43.2858 47.9037 43.2858 46.5512V7.36928C43.2859 6.91838 42.9204 6.55288 42.4696 6.55288ZM28.5616 11.4506H26.9184C26.8149 10.3113 26.4925 9.20267 25.9691 8.18546H27.7649C28.2038 9.22409 28.4728 10.3266 28.5616 11.4506ZM9.92164 19.1711C6.10854 14.7204 6.62546 8.02129 11.0761 4.20829C12.9993 2.56061 15.4483 1.65504 17.9809 1.65514C21.5975 1.65861 24.963 3.50475 26.9095 6.55288H24.9022C21.8433 2.64969 16.1992 1.96523 12.296 5.02418C8.39273 8.08312 7.70837 13.7271 10.7672 17.6304C10.8687 17.7599 10.9738 17.8867 11.0823 18.0104L9.92164 19.1711ZM25.2818 11.4506H18.7972V8.18546H24.0802C24.7384 9.16083 25.1508 10.2812 25.2818 11.4506ZM17.1646 7.36917V11.929L12.2407 16.8528C9.7039 13.6908 10.2108 9.07104 13.3728 6.53431C16.0651 4.37431 19.8987 4.38206 22.5823 6.55288H17.9809C17.53 6.55288 17.1646 6.91838 17.1646 7.36917ZM41.6533 46.5511C41.6533 47.0019 41.2878 47.3674 40.837 47.3674H19.6135C19.1627 47.3674 18.7972 47.0019 18.7972 46.5511V44.8973C19.4995 45.4375 20.36 45.7319 21.246 45.7348H39.2044C40.0905 45.7319 40.951 45.4375 41.6533 44.8973V46.5511ZM41.6533 41.6534C41.6533 43.0059 40.5569 44.1022 39.2044 44.1022H21.246C19.8936 44.1022 18.7972 43.0059 18.7972 41.6534V16.3484H41.6533V41.6534ZM41.6533 14.7158H18.7972V13.0832H29.409C29.8598 13.0832 30.2252 12.7177 30.2252 12.2669C30.2222 10.8757 29.9806 9.4951 29.511 8.18546H41.6533V14.7158Z" fill="white"/>
<path d="M39.204 31.0415C38.7532 31.0415 38.3877 31.407 38.3877 31.8578V37.5718C38.3877 38.0226 38.7532 38.3881 39.204 38.3881C39.6548 38.3881 40.0203 38.0226 40.0203 37.5718V31.8578C40.0203 31.407 39.6548 31.0415 39.204 31.0415Z" fill="white"/>
<path d="M39.204 40.0205C38.7532 40.0205 38.3877 40.386 38.3877 40.8368V41.6531C38.3877 42.1039 38.7532 42.4694 39.204 42.4694C39.6548 42.4694 40.0203 42.1039 40.0203 41.6531V40.8368C40.0203 40.386 39.6548 40.0205 39.204 40.0205Z" fill="white"/>
</g>
<defs>
<clipPath id="clip0">
<rect width="49" height="49" fill="white"/>
</clipPath>
</defs>
</svg>
