<svg width="19" height="28" viewBox="0 0 19 28" fill="none" xmlns="http://www.w3.org/2000/svg">
<path d="M9.83368 0C4.77926 0 0.666992 4.11227 0.666992 9.16669C0.666992 10.684 1.04635 12.1885 1.76753 13.5229L9.33239 27.2046C9.4331 27.387 9.62501 27.5 9.83368 27.5C10.0423 27.5 10.2343 27.387 10.335 27.2046L17.9026 13.5183C18.621 12.1885 19.0004 10.684 19.0004 9.16663C19.0004 4.11227 14.8881 0 9.83368 0ZM9.83368 13.75C7.30647 13.75 5.25036 11.6939 5.25036 9.16669C5.25036 6.63948 7.30647 4.58337 9.83368 4.58337C12.3609 4.58337 14.417 6.63948 14.417 9.16669C14.417 11.6939 12.3609 13.75 9.83368 13.75Z" fill="#830000"/>
</svg>
