<svg width="58" height="44" viewBox="0 0 58 44" fill="none" xmlns="http://www.w3.org/2000/svg">
<path d="M56.3037 34.337L57.1997 30.753C57.238 30.5995 57.2376 30.4388 57.1984 30.2855C57.1592 30.1322 57.0825 29.991 56.9751 29.8748C56.8678 29.7585 56.7332 29.6708 56.5835 29.6195C56.4338 29.5682 56.2737 29.5549 56.1176 29.5809L51.6596 30.3239C51.0585 28.8685 50.1028 27.5866 48.8796 26.5949C49.9741 24.0541 50.5515 21.1439 50.5515 18.1223C50.5515 13.1724 49.0242 8.64218 46.2511 5.3661C43.2794 1.85551 39.1595 0 34.3368 0H20.9836C10.9909 0 2.86129 8.12963 2.86129 18.1223C2.86086 20.8925 3.49494 23.626 4.71489 26.1131C2.90814 27.1717 1.5001 28.7956 0.708168 30.7341C-0.0837599 32.6726 -0.215529 34.8178 0.333207 36.8387C0.881943 38.8595 2.08066 40.6435 3.74429 41.9152C5.40791 43.187 7.44391 43.8757 9.53792 43.875H43.8749C47.3185 43.875 50.2932 41.6097 51.6596 38.35L56.1176 39.093C56.2737 39.119 56.4338 39.1058 56.5835 39.0545C56.7332 39.0032 56.8678 38.9154 56.9751 38.7991C57.0825 38.6829 57.1592 38.5417 57.1984 38.3884C57.2376 38.2351 57.238 38.0744 57.1997 37.9209L56.3037 34.337ZM44.7951 6.59854C47.277 9.53065 48.6439 13.6232 48.6439 18.1223C48.6439 20.7765 48.1624 23.3278 47.2452 25.5658C46.7404 25.3252 46.2116 25.1388 45.6676 25.0097C46.3898 22.7858 46.7507 20.4605 46.7363 18.1223C46.7363 13.1724 45.2089 8.64218 42.4358 5.3661C41.6896 4.48128 40.8457 3.68372 39.9202 2.98863C41.8082 3.78878 43.479 5.02607 44.7951 6.59854ZM37.1646 6.59854C39.6466 9.53065 41.0135 13.6232 41.0135 18.1223C41.0306 20.3948 40.6566 22.6533 39.9078 24.7989H37.8364C38.6807 22.6745 39.1116 20.4084 39.1059 18.1223C39.1035 14.8526 38.2174 11.6443 36.5413 8.83698C34.8651 6.02961 32.4613 3.72753 29.584 2.17432C32.5492 2.72085 35.2304 4.28567 37.1646 6.59854ZM38.6206 5.3661C37.8744 4.48128 37.0305 3.68372 36.105 2.98863C37.993 3.78877 39.6639 5.02605 40.98 6.59854C43.4618 9.53065 44.8287 13.6232 44.8287 18.1223C44.8458 20.3948 44.4718 22.6533 43.723 24.7989H41.9213C42.597 22.6383 42.9342 20.3861 42.9211 18.1223C42.9211 13.1724 41.3937 8.64218 38.6206 5.3661ZM4.7689 18.1223C4.7689 9.18144 12.0429 1.90761 20.9836 1.90761C29.9243 1.90761 37.1983 9.18144 37.1983 18.1223C37.2045 20.425 36.7151 22.7021 35.7634 24.7989H9.53792C8.48656 24.7988 7.44247 24.9733 6.44831 25.3154C5.34309 23.0786 4.7684 20.6172 4.7689 18.1223ZM1.90749 34.337C1.90749 32.8278 2.35501 31.3525 3.19345 30.0977C4.03189 28.8429 5.2236 27.8649 6.61788 27.2874C8.01216 26.7098 9.54639 26.5587 11.0265 26.8531C12.5067 27.1476 13.8663 27.8743 14.9335 28.9414C16.0006 30.0086 16.7273 31.3682 17.0217 32.8483C17.3162 34.3285 17.1651 35.8627 16.5875 37.257C16.01 38.6513 15.032 39.843 13.7772 40.6814C12.5223 41.5199 11.0471 41.9674 9.53792 41.9674C7.5149 41.9651 5.57539 41.1605 4.1449 39.73C2.71441 38.2995 1.90976 36.36 1.90749 34.337ZM43.8749 41.9674H15.2542C16.4405 41.0802 17.4037 39.9285 18.0671 38.604C18.7305 37.2794 19.0759 35.8184 19.0759 34.337C19.0759 32.8555 18.7305 31.3945 18.0671 30.07C17.4037 28.7454 16.4405 27.5938 15.2542 26.7065H19.076C21.2133 26.7065 24.7988 27.6978 24.7988 34.337C24.7988 34.5899 24.8993 34.8325 25.0782 35.0114C25.257 35.1903 25.4996 35.2908 25.7526 35.2908C26.0056 35.2908 26.2482 35.1903 26.427 35.0114C26.6059 34.8325 26.7064 34.5899 26.7064 34.337C26.7064 30.9471 25.7866 28.3338 24.1181 26.7065H28.614C30.7514 26.7065 34.3368 27.6978 34.3368 34.337C34.3368 34.5899 34.4373 34.8325 34.6162 35.0114C34.7951 35.1903 35.0377 35.2908 35.2906 35.2908C35.5436 35.2908 35.7862 35.1903 35.9651 35.0114C36.144 34.8325 36.2445 34.5899 36.2445 34.337C36.2445 30.9471 35.3246 28.3338 33.6562 26.7065H37.1983C39.3356 26.7065 42.9211 27.6978 42.9211 34.337C42.9211 34.5899 43.0216 34.8325 43.2004 35.0114C43.3793 35.1903 43.6219 35.2908 43.8749 35.2908C44.1279 35.2908 44.3705 35.1903 44.5493 35.0114C44.7282 34.8325 44.8287 34.5899 44.8287 34.337C44.8287 30.9471 43.9089 28.3338 42.2404 26.7065H43.8749C47.5565 26.7065 50.5515 30.1295 50.5515 34.337C50.5515 38.5444 47.5565 41.9674 43.8749 41.9674ZM54.3952 34.5683L54.9961 36.9722L52.2314 36.5114C52.535 35.0777 52.535 33.5962 52.2314 32.1625L54.9961 31.7017L54.3952 34.1057C54.3572 34.2575 54.3572 34.4164 54.3952 34.5683Z" fill="white"/>
<path d="M7.63046 33.3833C7.06452 33.3833 6.5113 33.5511 6.04074 33.8655C5.57018 34.18 5.20343 34.6268 4.98686 35.1497C4.77028 35.6726 4.71362 36.2479 4.82403 36.803C4.93443 37.358 5.20696 37.8679 5.60713 38.268C6.00731 38.6682 6.51716 38.9407 7.07222 39.0512C7.62728 39.1616 8.20262 39.1049 8.72547 38.8883C9.24833 38.6717 9.69522 38.305 10.0096 37.8344C10.3241 37.3639 10.4919 36.8107 10.4919 36.2447C10.491 35.4861 10.1893 34.7588 9.65284 34.2223C9.11641 33.6859 8.38909 33.3842 7.63046 33.3833ZM7.63046 37.1985C7.44181 37.1985 7.2574 37.1426 7.10055 37.0378C6.9437 36.933 6.82145 36.784 6.74926 36.6097C6.67707 36.4354 6.65818 36.2437 6.69498 36.0586C6.73178 35.8736 6.82262 35.7037 6.95602 35.5703C7.08941 35.4369 7.25936 35.346 7.44438 35.3092C7.6294 35.2724 7.82118 35.2913 7.99546 35.3635C8.16975 35.4357 8.31871 35.558 8.42352 35.7148C8.52832 35.8717 8.58426 36.0561 8.58426 36.2447C8.58398 36.4976 8.4834 36.74 8.30459 36.9188C8.12577 37.0977 7.88334 37.1982 7.63046 37.1985Z" fill="white"/>
<path d="M21.7398 20.7042C21.8284 20.7928 21.9335 20.8631 22.0493 20.911C22.165 20.959 22.289 20.9836 22.4143 20.9836C22.5395 20.9836 22.6636 20.959 22.7793 20.911C22.895 20.8631 23.0002 20.7928 23.0887 20.7042L26.904 16.889C27.0828 16.7102 27.1833 16.4675 27.1833 16.2146C27.1833 15.9616 27.0828 15.719 26.904 15.5401C26.7251 15.3612 26.4825 15.2607 26.2295 15.2607C25.9765 15.2607 25.7339 15.3612 25.555 15.5401L21.7398 19.3553C21.6513 19.4439 21.581 19.549 21.5331 19.6648C21.4851 19.7805 21.4604 19.9045 21.4604 20.0298C21.4604 20.155 21.4851 20.2791 21.5331 20.3948C21.581 20.5105 21.6513 20.6157 21.7398 20.7042Z" fill="white"/>
<path d="M13.3533 20.984C13.4785 20.9841 13.6026 20.9595 13.7184 20.9116C13.8341 20.8637 13.9392 20.7933 14.0277 20.7046L24.5196 10.2128C24.6984 10.0339 24.7989 9.79127 24.7989 9.5383C24.7989 9.28533 24.6984 9.04272 24.5196 8.86384C24.3407 8.68497 24.0981 8.58447 23.8451 8.58447C23.5921 8.58447 23.3495 8.68497 23.1706 8.86384L12.6788 19.3557C12.5454 19.4891 12.4545 19.659 12.4177 19.8441C12.3809 20.0291 12.3998 20.2209 12.472 20.3952C12.5442 20.5694 12.6665 20.7184 12.8233 20.8232C12.9802 20.928 13.1646 20.984 13.3533 20.984Z" fill="white"/>
<path d="M12.3996 32.4296C12.9264 32.4296 13.3534 32.0025 13.3534 31.4758C13.3534 30.949 12.9264 30.522 12.3996 30.522C11.8728 30.522 11.4458 30.949 11.4458 31.4758C11.4458 32.0025 11.8728 32.4296 12.3996 32.4296Z" fill="white"/>
</svg>
