<svg width="54" height="46" viewBox="0 0 54 46" fill="none" xmlns="http://www.w3.org/2000/svg">
<path d="M51.5467 19.7292C50.2088 17.7811 48.3876 16.036 46.1269 14.5274C46.3598 14.3189 46.5787 14.0903 46.7812 13.841C48.5841 11.6355 49.8916 7.30389 48.9643 4.37081C48.8376 3.97024 48.4854 3.68305 48.0676 3.6397C45.9071 3.41484 43.4697 4.42533 41.7224 5.54257C39.7231 3.17005 36.4166 0.915546 33.5607 0.696382C33.1427 0.664741 32.7439 0.883589 32.5477 1.25494C31.665 2.92409 31.5066 4.93053 31.5594 6.4805C28.3212 5.88133 24.4162 5.89494 20.7915 6.52543C17.7908 7.04729 13.5463 8.23687 10.3665 10.9401C8.99954 12.1022 7.96532 13.4474 7.2803 14.9352C2.58377 18.2799 0 22.653 0 27.2766C0 32.1787 2.86801 36.755 8.07564 40.1625C13.1453 43.4797 19.8656 45.3065 26.9985 45.3065C28.2595 45.3065 29.5224 45.2487 30.7522 45.1346C31.3322 45.0808 31.7587 44.5671 31.705 43.987C31.6512 43.4071 31.1378 42.9795 30.5575 43.0343C29.3921 43.1423 28.1947 43.1971 26.9985 43.1971C20.2711 43.1971 13.961 41.4925 9.23062 38.3973C4.63841 35.3926 2.10938 31.4432 2.10938 27.2766C2.10938 24.1049 3.59448 21.036 6.34458 18.4239C6.29585 18.9281 6.27919 19.4423 6.2967 19.9658C6.30809 20.3054 6.3393 20.6442 6.3855 20.9816C6.38455 21.5115 6.3701 22.069 6.35449 22.6588C6.2697 25.8614 6.17372 29.4914 8.11645 32.1801C10.1244 34.958 13.8896 36.9702 17.9427 37.4314C18.5467 37.5001 19.1424 37.5342 19.7275 37.5342C22.8872 37.5342 25.7354 36.542 27.8815 34.6661C32.0599 31.0083 35.9675 32.2466 39.415 33.3393C41.4164 33.9736 43.1446 34.5211 44.6883 34.0137C48.4282 32.7851 47.9836 26.1097 47.77 22.9017C47.7592 22.7405 47.7493 22.5913 47.7407 22.4544C47.7883 22.1275 47.8216 21.7992 47.8372 21.47C47.8866 20.3899 47.7572 19.3096 47.4609 18.25C50.3134 20.8935 51.8906 24.0484 51.8906 27.2766C51.8906 32.8987 47.1413 38.1692 39.4959 41.0316C38.9505 41.2359 38.6738 41.8436 38.878 42.3891C39.0366 42.8129 39.4387 43.0744 39.8659 43.0744C39.9888 43.0744 40.1138 43.0527 40.2356 43.0071C44.2955 41.4871 47.7127 39.2804 50.1177 36.6258C52.6575 33.8224 54 30.5896 54 27.2765C54 24.6388 53.1746 22.0995 51.5467 19.7292ZM47.1099 5.72787C47.4 7.89874 46.3942 10.9814 45.1459 12.5085C44.9589 12.7386 44.7526 12.9408 44.5291 13.1147C44.2204 12.774 43.8919 12.4408 43.5428 12.1163C43.8425 10.9516 43.965 9.18851 42.9275 7.27405C44.1814 6.4806 45.7399 5.82037 47.1099 5.72787ZM34.1202 2.91049C36.7411 3.50069 39.8738 6.10081 41.0557 8.24615C41.5222 9.09285 41.6574 9.89452 41.6411 10.5722C39.4084 8.98306 36.7176 7.75889 33.6967 6.96102C33.5819 5.41484 33.7305 3.99903 34.1202 2.91049ZM11.7328 12.5473C15.3477 9.47402 21.2033 8.141 26.4005 8.141C28.1897 8.141 29.901 8.29899 31.4159 8.59842C35.7044 9.44681 39.4977 11.2417 42.0972 13.6524C44.563 15.9391 45.8532 18.6813 45.7303 21.3721C45.6926 22.1669 45.5355 22.9603 45.2634 23.7298C44.4859 25.9265 43.2537 25.8319 39.6439 24.9672C35.8673 24.0627 30.695 22.8239 25.4314 27.427L25.4313 27.4271C22.5665 29.9333 18.8182 30.4577 15.1472 28.8653C11.2377 27.1696 8.5282 23.5646 8.40502 19.8952C8.30725 16.9799 9.4268 14.5076 11.7328 12.5473ZM44.0297 32.0097C43.1328 32.3045 41.7052 31.8523 40.0523 31.3284C36.4704 30.1933 31.5645 28.6387 26.4927 33.0784C24.402 34.906 21.4501 35.7076 18.1811 35.3356C14.6989 34.9393 11.4974 33.2567 9.8261 30.9445C8.88406 29.6407 8.55721 27.9013 8.4625 26.0859C9.87504 28.08 11.8991 29.7558 14.3077 30.8005C15.9443 31.5103 17.6625 31.8751 19.3419 31.8751C19.759 31.8751 20.1741 31.8525 20.5845 31.8071C22.8957 31.5521 24.9937 30.6126 26.8201 29.0147L26.82 29.0148C31.2634 25.1291 35.4547 26.1328 39.1527 27.0185C40.8875 27.434 42.3855 27.7929 43.7508 27.6C44.5462 27.4876 45.2197 27.1953 45.7812 26.7217C45.7323 29.0645 45.3696 31.5696 44.0297 32.0097Z" fill="white"/>
<path d="M37.8665 21.3866C37.9867 21.4308 38.1097 21.4518 38.2307 21.4518C38.66 21.4518 39.0635 21.1875 39.2206 20.7611L40.6945 16.7564C40.8956 16.2096 40.6156 15.6034 40.069 15.4022C39.5223 15.2013 38.916 15.4811 38.7149 16.0278L37.2409 20.0325C37.0398 20.5792 37.3199 21.1855 37.8665 21.3866Z" fill="white"/>
<path d="M14.8525 21.8597C14.952 21.889 15.0524 21.903 15.1511 21.903C15.6067 21.903 16.027 21.6054 16.1623 21.1461L18.3717 13.6477C18.5363 13.0889 18.2169 12.5026 17.6581 12.3378C17.0994 12.1735 16.5129 12.4928 16.3484 13.0515L14.139 20.5499C13.9743 21.1087 14.2938 21.6951 14.8525 21.8597Z" fill="white"/>
<path d="M21.4444 24.1859C21.543 24.2146 21.6423 24.2283 21.74 24.2283C22.1969 24.2283 22.6178 23.9291 22.7521 23.4684L25.921 12.5959C26.084 12.0367 25.7628 11.4512 25.2036 11.2883C24.644 11.1252 24.0589 11.4466 23.8959 12.0058L20.727 22.8783C20.5639 23.4374 20.8852 24.0229 21.4444 24.1859Z" fill="white"/>
<path d="M30.1726 21.5402C30.2839 21.5776 30.3969 21.5953 30.5082 21.5953C30.949 21.5953 31.3601 21.3166 31.5079 20.8758L33.9325 13.6494C34.1178 13.0972 33.8203 12.4993 33.268 12.314C32.7156 12.1283 32.1179 12.4261 31.9327 12.9785L29.5082 20.2049C29.323 20.757 29.6204 21.3549 30.1726 21.5402Z" fill="white"/>
<path d="M35.3154 42.3035C34.7329 42.3035 34.2607 42.7758 34.2607 43.3582C34.2607 43.9406 34.7329 44.4128 35.3154 44.4128H35.3214C35.9039 44.4128 36.3732 43.9406 36.3732 43.3582C36.3732 42.7758 35.8979 42.3035 35.3154 42.3035Z" fill="white"/>
</svg>
