<svg width="26" height="62" viewBox="0 0 26 62" fill="none" xmlns="http://www.w3.org/2000/svg">
<path d="M22.3522 17.0228C20.6335 15.3041 19.6875 13.0193 19.6875 10.5889V7.69387C20.8304 7.28634 21.6562 6.20353 21.6562 4.92188V2.95312C21.6562 1.32497 20.3313 0 18.7031 0H6.89062C5.26247 0 3.9375 1.32497 3.9375 2.95312V4.92188C3.9375 6.20353 4.76339 7.28634 5.90625 7.69387V10.5899C5.90625 13.0203 4.96027 15.3051 3.24155 17.0238C1.15172 19.1136 0 21.8925 0 24.8486V56.1094C0 58.8233 2.20795 61.0312 4.92188 61.0312H20.6719C23.3858 61.0312 25.5938 58.8233 25.5938 56.1094V24.8486C25.5938 21.8925 24.442 19.1136 22.3522 17.0228ZM5.90625 2.95312C5.90625 2.41073 6.34725 1.96875 6.89062 1.96875H18.7031C19.2465 1.96875 19.6875 2.41073 19.6875 2.95312V4.92188C19.6875 5.46427 19.2465 5.90625 18.7031 5.90625H6.89062C6.34725 5.90625 5.90625 5.46427 5.90625 4.92188V2.95312ZM4.63345 18.4147C6.72328 16.3239 7.875 13.545 7.875 10.5889V7.875H17.7188V10.5889C17.7188 13.545 18.8705 16.3239 20.9603 18.4147C22.679 20.1334 23.625 22.4182 23.625 24.8486V26.5781H1.96875V24.8486C1.96875 22.4182 2.91474 20.1334 4.63345 18.4147ZM23.625 28.5469V52.1719H1.96875V28.5469H23.625ZM20.6719 59.0625H4.92188C3.29372 59.0625 1.96875 57.7375 1.96875 56.1094V54.1406H23.625V56.1094C23.625 57.7375 22.3 59.0625 20.6719 59.0625Z" fill="white"/>
<path d="M4.51434 36.4219C5.07741 36.4219 5.60503 36.6266 6.03225 36.9849C5.80387 37.7862 5.85112 38.6495 6.20353 39.4104C6.60516 40.2757 7.35525 40.9461 8.2589 41.2483C9.23245 41.5741 10.1755 41.9856 11.0978 42.4364C9.97369 44.102 8.63789 45.6258 7.11113 46.9586L4.27514 49.4343C3.91191 49.7513 3.83119 50.2858 4.08614 50.6953C4.2712 50.9916 4.59112 51.1599 4.92286 51.1599C5.04984 51.1599 5.17781 51.1353 5.30086 51.0841L10.5358 48.9077C12.5144 48.0857 14.2951 46.9311 15.8475 45.5303C16.758 46.2961 17.6272 47.1161 18.4117 48.0139L20.8884 50.8499C21.0794 51.0713 21.3521 51.1875 21.6287 51.1875C21.8078 51.1875 21.987 51.1393 22.1475 51.0398C22.5579 50.7849 22.7223 50.271 22.5373 49.8261L20.3608 44.5912C19.972 43.6551 19.4867 42.7593 18.9492 41.8989C19.4818 41.0809 19.9671 40.2285 20.3707 39.3228C20.7585 38.4507 20.7742 37.483 20.4149 36.5991C20.2693 36.2398 20.0566 35.9258 19.8115 35.6413C21.0056 34.2011 21.6562 32.4086 21.6562 30.5156H19.6875C19.6875 32.0306 19.1303 33.456 18.1243 34.5742C17.3289 34.3517 16.4725 34.4 15.7165 34.7504C14.9241 35.1186 14.3099 35.784 13.9771 36.5863C12.9731 35.8716 11.9021 35.2564 10.776 34.7543C9.90478 34.3665 8.93812 34.3498 8.05219 34.7091C7.69092 34.8557 7.37494 35.0693 7.08947 35.3164C6.34528 34.7652 5.45738 34.4531 4.51434 34.4531H2.95312V36.4219H4.51434ZM18.5033 45.2497C18.1007 44.858 17.6813 44.4839 17.2551 44.1197C17.4028 43.9533 17.5534 43.7909 17.6951 43.6196C17.9914 44.1492 18.267 44.6906 18.5033 45.2497ZM15.7441 37.4299C15.878 37.0312 16.1615 36.7133 16.5434 36.5361C16.9293 36.3579 17.3575 36.348 17.7493 36.5036C18.1361 36.6581 18.4344 36.9544 18.5899 37.3393C18.7464 37.7232 18.7395 38.1426 18.5712 38.5206C16.8525 42.3783 13.7665 45.4033 9.87426 47.0492C12.5262 44.3313 14.5392 41.0406 15.7441 37.4299ZM7.9567 37.3757C8.11125 36.9889 8.40853 36.6896 8.79342 36.5331C9.17536 36.3786 9.59569 36.3835 9.97369 36.5528C11.1333 37.0686 12.223 37.7242 13.2339 38.4891C12.9061 39.2628 12.537 40.0168 12.1285 40.7492C11.0762 40.2255 9.99633 39.752 8.883 39.3799C8.48531 39.247 8.16736 38.9635 7.99017 38.5806C7.812 38.1977 7.80019 37.7695 7.9567 37.3757Z" fill="white"/>
<path d="M19.467 24.8251L21.3875 24.394C20.9278 22.3455 19.8991 20.4772 18.4137 18.9917C16.7521 17.3301 15.8081 15.1222 15.752 12.7734L13.7832 12.8207C13.8511 15.6764 15.0009 18.3627 17.0218 20.3836C18.2434 21.6053 19.09 23.1409 19.467 24.8251Z" fill="white"/>
</svg>
